<svg width="30" height="22" viewBox="0 0 30 22" fill="none" xmlns="http://www.w3.org/2000/svg">
<path fill-rule="evenodd" clip-rule="evenodd" d="M19.7523 0.424516C19.6275 0.293472 19.4769 0.188365 19.3096 0.115466C19.1424 0.0425662 18.9618 0.00336739 18.7787 0.000207577C18.5956 -0.00295224 18.4137 0.0299915 18.2439 0.0970741C18.0741 0.164157 17.9198 0.264004 17.7903 0.390659C17.6608 0.517313 17.5588 0.668181 17.4902 0.834261C17.4216 1.00034 17.3879 1.17823 17.3911 1.35732C17.3944 1.53641 17.4344 1.71303 17.509 1.87664C17.5835 2.04025 17.691 2.1875 17.825 2.30961L25.3465 9.66621H1.36369C1.00202 9.66621 0.655157 9.80673 0.399416 10.0569C0.143674 10.307 0 10.6463 0 11C0 11.3537 0.143674 11.693 0.399416 11.9431C0.655157 12.1933 1.00202 12.3338 1.36369 12.3338H25.3465L17.825 19.6904C17.691 19.8125 17.5835 19.9598 17.509 20.1234C17.4344 20.287 17.3944 20.4636 17.3911 20.6427C17.3879 20.8218 17.4216 20.9997 17.4902 21.1657C17.5588 21.3318 17.6608 21.4827 17.7903 21.6093C17.9198 21.736 18.0741 21.8358 18.2439 21.9029C18.4137 21.97 18.5956 22.003 18.7787 21.9998C18.9618 21.9966 19.1424 21.9574 19.3096 21.8845C19.4769 21.8116 19.6275 21.7065 19.7523 21.5755L29.6012 11.9425C29.8566 11.6925 30 11.3535 30 11C30 10.6465 29.8566 10.3075 29.6012 10.0575L19.7523 0.424516Z" fill="black"/>
</svg>
