<svg width="140" height="125" viewBox="0 0 92 105" fill="none" xmlns="http://www.w3.org/2000/svg">
<path d="M46 0.5C51.9676 0.5 57.6906 2.86731 61.9102 7.08105C66.1296 11.2948 68.5 17.0099 68.5 22.9688V26.75H91.5V91.875C91.5 95.2231 90.1678 98.4341 87.7969 100.802C85.426 103.169 82.2106 104.5 78.8574 104.5H13.1426C9.7894 104.5 6.574 103.169 4.20312 100.802C1.8322 98.4341 0.5 95.2231 0.5 91.875V26.75H23.5V22.9688C23.5 17.0099 25.8704 11.2948 30.0898 7.08105C34.3094 2.86731 40.0324 0.5 46 0.5ZM46 6.0625C41.5106 6.0625 37.205 7.84341 34.0303 11.0137C30.8555 14.1842 29.0713 18.4847 29.0713 22.9688V26.75H62.9287V22.9688C62.9287 18.4847 61.1445 14.1842 57.9697 11.0137C54.795 7.84342 50.4894 6.0625 46 6.0625Z" fill="white" stroke="black"/>
</svg>
