<svg width="140" height="4" viewBox="0 0 140 4" fill="none" xmlns="http://www.w3.org/2000/svg">
<path d="M20.5156 0.254883C19.5823 0.373776 18.8468 1.67018 18.8438 3.25488H2.08789C1.25977 3.25454 0.587911 2.58308 0.587891 1.75488C0.587901 0.926675 1.25976 0.255224 2.08789 0.254883H20.5156ZM43.5518 0.254883C43.8659 1.15173 44.4481 1.75488 45.1162 1.75488C45.7842 1.75481 46.3655 1.15155 46.6797 0.254883H133.89C133.893 1.84018 134.629 3.13681 135.562 3.25488H98.3145C98.0003 2.35806 97.4181 1.75488 96.75 1.75488C96.082 1.755 95.5007 2.35825 95.1865 3.25488H22.4678C22.4647 1.6696 21.7278 0.37296 20.7939 0.254883H43.5518ZM138.124 0.262695C138.88 0.339685 139.471 0.978371 139.471 1.75488C139.471 2.53139 138.88 3.17008 138.124 3.24707L137.971 3.25488H135.841C136.774 3.13637 137.511 1.83986 137.514 0.254883H137.971L138.124 0.262695Z" fill="url(#paint0_linear_671_24)"/>
<defs>
<linearGradient id="paint0_linear_671_24" x1="70.5253" y1="-0.510639" x2="70.5253" y2="7.50541" gradientUnits="userSpaceOnUse">
<stop stop-color="#E1A350"/>
<stop offset="1" stop-color="#A66126"/>
</linearGradient>
</defs>
</svg>
