<svg width="167" height="7" viewBox="0 0 167 7" fill="none" xmlns="http://www.w3.org/2000/svg">
<path d="M2 4.22165C2 4.22165 3.36626 2.01816 5.00461 2.00578C7.04806 1.99034 7.47156 4.81203 9.51152 4.96332C11.8275 5.13508 11.7022 2.17071 14.0184 2.00578C16.2311 1.84824 18.5253 4.96306 18.5253 4.96306L47.0691 4.96332H87.1576H128.194H147.724C147.724 4.96332 150.101 2.00566 151.739 2.00567C153.378 2.00568 153.631 5.38667 155.235 4.96332C156.307 4.68031 156.884 2.00567 157.98 2.00567C159.075 2.00567 159.398 4.96332 160.493 4.96332C161.588 4.96332 161.565 2.00567 162.66 2.00567C163.755 2.00567 165 3.95446 165 3.95446" stroke="url(#paint0_linear_671_33)" stroke-width="4" stroke-linecap="round"/>
<defs>
<linearGradient id="paint0_linear_671_33" x1="84.455" y1="-3.44849" x2="84.455" y2="12.4108" gradientUnits="userSpaceOnUse">
<stop stop-color="#5F917D"/>
<stop offset="1" stop-color="#233320"/>
</linearGradient>
</defs>
</svg>
