<svg width="28" height="27" viewBox="0 0 28 27" fill="none" xmlns="http://www.w3.org/2000/svg">
<g filter="url(#filter0_d_669_18)">
<path d="M7.825 19L9.45 11.975L4 7.25L11.2 6.625L14 0L16.8 6.625L24 7.25L18.55 11.975L20.175 19L14 15.275L7.825 19Z" fill="#FFF700"/>
<path d="M16.3398 6.81934L16.457 7.09668L16.7568 7.12305L22.7803 7.64551L18.2227 11.5977L17.9951 11.7939L18.0625 12.0879L19.4209 17.9609L14.2578 14.8467L14 14.6914L13.7422 14.8467L8.57812 17.9609L9.9375 12.0879L10.0049 11.7939L9.77734 11.5977L5.21875 7.64551L11.2432 7.12305L11.543 7.09668L11.6602 6.81934L14 1.28418L16.3398 6.81934Z" stroke="black"/>
</g>
<defs>
<filter id="filter0_d_669_18" x="0" y="0" width="28" height="27" filterUnits="userSpaceOnUse" color-interpolation-filters="sRGB">
<feFlood flood-opacity="0" result="BackgroundImageFix"/>
<feColorMatrix in="SourceAlpha" type="matrix" values="0 0 0 0 0 0 0 0 0 0 0 0 0 0 0 0 0 0 127 0" result="hardAlpha"/>
<feOffset dy="4"/>
<feGaussianBlur stdDeviation="2"/>
<feComposite in2="hardAlpha" operator="out"/>
<feColorMatrix type="matrix" values="0 0 0 0 0 0 0 0 0 0 0 0 0 0 0 0 0 0 0.25 0"/>
<feBlend mode="normal" in2="BackgroundImageFix" result="effect1_dropShadow_669_18"/>
<feBlend mode="normal" in="SourceGraphic" in2="effect1_dropShadow_669_18" result="shape"/>
</filter>
</defs>
</svg>
